<svg version="1.2" xmlns="http://www.w3.org/2000/svg" viewBox="0 0 1624 421" width="1624" height="421">
	<style>
		.s0 { fill: #ff7670 } 
		.s1 { fill: #ffffff } 
	</style>
	<g id="Background">
		<path id="Path 0" fill-rule="evenodd" class="s0" d="m147.5 93.65c25.3 0.3 51.94 0.84 59.21 1.2 9.68 0.48 13.63 1.05 14.78 2.15 1.42 1.35 1.59 13.33 1.72 116.5 0.12 105.98-0.01 115.78-1.64 125-0.97 5.5-3.32 14.05-5.21 19-1.9 4.95-4.94 11.25-6.76 14-1.82 2.75-5.96 7.72-9.2 11.05-3.25 3.33-8.6 8.29-11.9 11.03-3.3 2.74-9.15 6.85-13 9.13-3.85 2.28-11.72 5.79-17.5 7.79-5.78 2-14.55 4.5-19.5 5.55-6.86 1.46-13.05 1.92-26 1.92-9.35 0-21.05-0.43-26-0.94-4.95-0.52-14.29-2.53-20.75-4.48-6.46-1.95-15.01-5.18-19-7.18-3.99-1.99-9.73-5.24-12.75-7.21-3.02-1.97-7.98-5.55-11-7.96-3.02-2.4-8.55-7.37-12.29-11.04-3.73-3.66-6.77-7.45-6.75-8.41 0.02-0.96 7.16-9.29 15.86-18.5 8.7-9.21 18.71-19.32 22.25-22.46 3.54-3.15 6.99-5.74 7.68-5.75 0.69-0.02 4.29 2.04 8 4.58 3.71 2.54 10.13 6.3 14.25 8.36 4.12 2.06 9.97 4.59 13 5.63 4.47 1.54 8.41 1.89 21 1.89 15.2 0 15.64-0.06 23-3.2 5.58-2.38 9.16-4.81 14-9.52 4.11-3.99 7.7-8.7 9.77-12.8 1.8-3.56 3.26-7.04 3.25-7.73-0.01-0.69-0.24-1.25-0.52-1.25-0.28 0-2.41 1.32-4.75 2.93-2.34 1.61-6.5 3.93-9.25 5.16-2.75 1.23-8.15 3.09-12 4.14-4.63 1.26-11.92 2.09-21.5 2.46-13.92 0.53-15 0.42-27-2.62-6.88-1.74-14.53-4.08-17-5.19-2.48-1.12-8.1-4.39-12.5-7.28-4.4-2.89-11.77-8.82-16.37-13.18-4.61-4.35-10.89-11.3-13.96-15.42-3.07-4.13-7.5-11.55-9.83-16.5-2.33-4.95-5.45-13.28-6.93-18.5-2.47-8.68-2.74-11.4-3.15-31.5-0.4-19.59-0.23-22.93 1.57-30.5 1.11-4.68 3.4-12.32 5.09-17 1.68-4.68 5.41-12.32 8.28-17 3.76-6.11 9.04-12.31 18.76-22.05 10.12-10.13 15.69-14.84 22.04-18.65 4.67-2.8 12.33-6.66 17-8.59 4.67-1.92 10.53-4.05 13-4.73 2.47-0.67 6.75-1.6 9.5-2.05 2.75-0.46 25.7-0.58 51-0.28zm-56.81 84.21c-1.55 1.45-4.11 4.67-5.7 7.14-1.58 2.47-3.58 7.2-4.44 10.5-0.86 3.3-1.55 9.15-1.54 13 0.01 3.85 0.72 9.93 1.58 13.5 0.85 3.57 2.76 8.49 4.23 10.93 1.47 2.43 4.51 6.03 6.74 8 2.24 1.96 6.96 4.7 10.5 6.07 5.46 2.12 8.03 2.49 16.94 2.44 9.72-0.05 10.98-0.3 17-3.25 3.57-1.75 8.19-4.53 10.25-6.19 2.38-1.9 4.9-5.47 6.9-9.75 2.84-6.1 3.19-7.94 3.69-19.25 0.54-12.45 0.53-12.53-2.59-19-1.72-3.57-4.84-8.48-6.94-10.9-2.1-2.42-6.06-5.68-8.81-7.24-4.93-2.8-5.23-2.84-21-2.81-14.18 0.03-16.46 0.27-20 2.11-2.2 1.13-5.26 3.25-6.81 4.7z"/>
		<path id="Path 1" class="s1" d="m794 5.75c-3.58 1.56-8.52 4.21-11 5.9-2.48 1.68-6.67 5.49-9.33 8.46-2.65 2.96-5.92 7.75-7.25 10.64-2.09 4.54-2.42 6.71-2.4 16 0.02 8.66 0.42 11.63 2.07 15.25 1.12 2.47 3.73 6.75 5.8 9.5 2.06 2.75 6.64 7.16 10.18 9.8 3.81 2.84 8.68 5.43 11.93 6.34 4.09 1.15 8.84 1.46 18.5 1.17 12.27-0.35 13.34-0.55 19-3.51 3.44-1.8 8.59-5.84 12.08-9.47 3.34-3.48 6.77-7.46 7.62-8.83 0.85-1.38 2.29-4.98 3.18-8 0.9-3.03 1.64-8.42 1.64-12 0.01-3.7-0.79-8.87-1.84-12-1.02-3.03-2.7-6.85-3.73-8.5-1.02-1.65-4.13-5.64-6.91-8.86-3.86-4.49-6.91-6.79-13.04-9.83-7.54-3.74-8.64-3.99-19-4.43-10.41-0.44-11.35-0.31-17.5 2.37zm533.49-1.02c-2.75 0.97-7.25 3.2-10 4.94-2.74 1.74-7.05 5.34-9.58 8-2.52 2.66-5.89 7.3-7.5 10.33-2.78 5.26-2.91 6.07-2.91 18.5 0 12.66 0.08 13.16 3.16 19 1.74 3.3 4.67 7.6 6.5 9.56 1.84 1.96 5.37 4.95 7.84 6.65 2.47 1.71 6.64 4.04 9.25 5.2 3.96 1.74 6.75 2.09 16.75 2.09 10.47 0 12.86-0.33 18.75-2.57 3.71-1.41 8.96-4.23 11.66-6.25 2.7-2.02 6.96-6.61 9.46-10.18 2.51-3.58 5.14-8.53 5.86-11 0.71-2.48 1.29-7.88 1.29-12 0-4.13-0.68-9.75-1.5-12.5-0.82-2.75-3.71-7.93-6.42-11.5-2.71-3.58-7.1-8.15-9.76-10.17-2.66-2.01-7.31-4.92-10.34-6.46-4.87-2.49-6.76-2.84-16.5-3.11-8.56-0.23-12.11 0.09-16.01 1.47zm144.51 87.52c-6.88 1.83-15.88 4.97-20 6.97-4.13 2-10.42 5.54-14 7.87-3.58 2.33-9.67 7.43-13.55 11.33-3.87 3.89-9.02 10.01-11.44 13.58-2.42 3.57-6.16 10.32-8.32 15-2.15 4.68-5 12.78-6.32 18l-2.4 9.5 0.03 152.5c68 0 76.13-0.27 77.18-1.32 1.04-1.04 1.48-12.26 2.09-52.75 0.43-28.29 1.16-57.73 1.64-65.43 0.62-10 1.37-15 2.63-17.5 0.98-1.93 2.71-4.77 3.86-6.32 1.16-1.56 4.57-4.48 7.6-6.5l5.5-3.68c21.36 0 22.31 0.17 27.38 3 2.96 1.65 6.75 4.57 8.43 6.5 1.67 1.93 4.08 5.75 5.34 8.5 2.11 4.62 2.37 7.16 3.34 33.5 0.58 15.68 1.27 45.04 1.53 65.25l0.48 36.75h77l-0.55-147.5c-4.31-13.95-7.11-21.6-9.02-26-1.9-4.4-4.91-10.4-6.69-13.33-1.78-2.94-6.15-8.56-9.7-12.5-3.55-3.94-8.95-9.34-12-12-3.05-2.65-8.69-6.89-12.54-9.41-3.85-2.52-10.49-6.09-14.75-7.92-4.26-1.84-8.54-3.33-9.5-3.32-0.96 0.01-2.2-0.46-2.75-1.03-0.55-0.58-4.6-1.72-9-2.54-4.54-0.85-16.88-1.72-28.5-2.01l-20.5-0.52z"/>
		<path id="Path 2" class="s0" d="m336.49 89.74c-1.65 0.3-7.73 1.43-13.5 2.5-5.77 1.07-14.54 3.51-19.49 5.42-4.95 1.92-11.93 5.14-15.5 7.16-3.57 2.02-8.75 5.45-11.5 7.62-2.75 2.17-7.41 6.22-10.37 9-2.95 2.78-7.95 8.21-11.1 12.06-3.16 3.85-7.13 9.25-8.83 12-1.7 2.75-4.48 8.38-6.19 12.5-1.71 4.13-4.47 12.45-6.14 18.5-2.6 9.46-3.11 13.31-3.59 27.5-0.45 13.05-0.2 18.69 1.18 27 0.96 5.78 2.86 14.1 4.22 18.5 1.37 4.4 5.12 13.4 8.32 20 3.6 7.39 7.94 14.5 11.3 18.5 3.01 3.57 8.79 9.47 12.84 13.1 4.05 3.63 10.28 8.82 13.86 11.53 3.57 2.71 8.52 5.92 11 7.13 2.48 1.21 9.9 4.04 16.5 6.29 6.6 2.26 15.37 4.75 19.5 5.53 5.97 1.14 7.64 1.17 8.2 0.17 0.39-0.69 1.06-4.18 1.5-7.75 0.43-3.57 0.79-33.04 0.79-65.49 0.01-51.64-0.18-59.01-1.49-59.26-0.82-0.15-7.13 4.92-14 11.28-6.88 6.35-12.95 11.53-13.5 11.52-0.55-0.02-4.48-3.53-8.74-7.79-4.26-4.27-7.74-8.44-7.73-9.26 0.01-0.82 11.6-13.12 25.75-27.33 14.14-14.21 27.43-27.26 29.53-29l3.81-3.17c41.05 41.85 54.64 55.94 56.67 58.32l3.71 4.32c-4.65 3.74-8.37 6.52-11.26 8.59-4.56 3.26-5.56 3.62-7.5 2.63-1.23-0.63-6.74-5.28-12.24-10.34-5.5-5.06-11.02-9.72-12.26-10.36-1.77-0.9-2.54-0.87-3.5 0.14-0.96 1-1.24 16.18-1.24 67v65.7c4.65 0.51 10.73-0.46 16.5-1.83 5.77-1.37 14.55-4.12 19.5-6.13 5.01-2.02 12.51-6.16 16.91-9.34 4.35-3.13 12.25-9.97 17.57-15.2 5.31-5.23 11.81-12.43 14.45-16 2.63-3.57 6.38-9.65 8.32-13.5 1.95-3.85 5.27-11.84 7.39-17.75 2.12-5.91 4.53-14.91 5.36-20 0.82-5.09 1.49-15.21 1.5-22.5 0-8.92-0.62-16.43-1.9-23-1.04-5.36-3.53-13.8-5.53-18.75-2.01-4.95-5.75-12.82-8.32-17.5-2.58-4.68-7.29-11.76-10.47-15.75-3.18-3.99-10-10.74-15.17-15-5.16-4.26-12.59-9.66-16.5-12-3.91-2.34-10.6-5.64-14.86-7.35-4.26-1.7-10.45-3.94-13.75-4.96-3.3-1.03-9.38-2.59-13.5-3.47-4.13-0.88-13.35-1.76-20.5-1.95-7.15-0.19-14.35-0.09-16.01 0.22z"/>
		<path id="Path 3" fill-rule="evenodd" class="s1" d="m564.5 25.5l0.5 69.5 46.5 0.5 0.25 36.75c0.16 23.02-0.12 37.5-0.75 38.75-0.96 1.91-2 2-46 2l0.55 13.75c0.3 7.56 0.99 21.63 1.53 31.25 0.72 13.01 1.39 18.14 2.57 20 0.88 1.38 2.56 3.3 3.73 4.28 1.16 0.99 3.92 2.78 6.12 4 3.42 1.88 6.03 2.28 32 3.22l0.25 36.75c0.16 23.02-0.12 37.5-0.75 38.75-0.96 1.92-1.99 2-26.75 1.99-19.42-0.02-27.35-0.39-32.25-1.53-3.58-0.84-9.42-2.62-13-3.97-3.58-1.35-9.2-4.07-12.5-6.05-3.3-1.99-8.48-5.66-11.5-8.17-3.02-2.51-7.21-6.41-9.29-8.67-2.09-2.25-4.98-5.9-6.43-8.1-1.45-2.2-4.3-7.38-6.34-11.5-2.04-4.13-5.21-12-10.37-27.5l-0.22-111.9c-0.12-61.55-0.03-112.52 0.2-113.26 0.35-1.13 7.55-1.32 81.95-0.84zm393.5 63.61c6.33-0.04 16.45 0.33 22.5 0.83 6.27 0.51 15.09 2.06 20.5 3.59 5.23 1.48 11.75 3.81 14.5 5.18 2.75 1.37 7.25 3.98 10 5.81 2.75 1.83 8.23 6.18 12.18 9.65 3.94 3.48 9.95 9.48 13.34 13.33 3.4 3.85 7.92 9.93 10.05 13.5 2.14 3.57 5.45 10.32 7.36 15 1.91 4.68 4.74 13 6.27 18.5 2.77 9.9 2.8 10.27 2.75 38.5-0.05 27.98-0.1 28.68-2.82 38.5-1.52 5.5-4 13.15-5.5 17-1.5 3.85-5 10.38-7.77 14.5-2.78 4.13-7.71 10.37-10.95 13.88-3.25 3.51-8.61 8.49-11.91 11.07-3.3 2.58-8.25 6.01-11 7.64-2.75 1.62-7.48 3.94-10.5 5.16-3.02 1.22-8.42 3.23-12 4.48-6.08 2.12-8 2.26-29.5 2.15-17.53-0.09-24.61-0.5-29.75-1.75-5.32-1.28-6.9-1.37-7.46-0.38-0.4 0.69-1.08 19.25-1.52 41.25-0.44 22-1.02 40.56-1.29 41.25-0.37 0.97-9 1.25-76.48 1.25l0.33-116.25c0.25-86.23 0.65-118.19 1.57-123.75 0.68-4.12 3.04-12 5.25-17.5 2.21-5.5 5.93-12.93 8.28-16.5 2.34-3.57 6.47-9.11 9.17-12.31 2.69-3.19 8.27-8.4 12.4-11.57 4.12-3.17 10.2-7.36 13.5-9.31 3.3-1.96 9.15-4.8 13-6.31 3.85-1.52 10.83-3.56 15.5-4.54 5.05-1.05 13.17-1.8 20-1.85zm-10 87.68c-1.38 1.04-4 3.88-5.83 6.3-1.82 2.43-4.21 7.34-5.29 10.91-1.44 4.75-1.98 9.47-2 17.5-0.02 8.62 0.42 12.19 2.01 16.5 1.11 3.03 3.39 7.41 5.07 9.75 1.67 2.34 4.95 5.37 7.29 6.74 2.34 1.38 6.95 3.22 10.25 4.1 3.51 0.94 8.49 1.46 12 1.25 4.11-0.25 8.05-1.35 12.5-3.49 3.99-1.92 7.97-4.82 10.29-7.49 2.09-2.4 4.79-6.39 6-8.86 1.96-3.99 2.21-6.09 2.21-18.5 0-13.47-0.11-14.24-3-20.39-1.75-3.73-4.77-7.99-7.25-10.25-2.34-2.12-5.49-4.49-7-5.26-1.51-0.77-6.24-2.12-10.5-3-4.26-0.88-8.09-1.55-8.5-1.5-0.41 0.06-4.13 0.94-8.25 1.95-4.13 1.01-8.63 2.7-10 3.74zm240-87.31c11.04 0.27 23.19 1.16 28 2.03 4.67 0.85 8.95 2 9.5 2.54 0.55 0.54 1.79 0.98 2.75 0.97 0.96-0.01 5.01 1.61 9 3.61 3.99 1.99 10.17 5.5 13.75 7.8 3.58 2.3 9.81 7.3 13.86 11.12 4.04 3.82 9.75 10.1 12.67 13.95 2.93 3.85 7.21 10.82 9.53 15.5 2.31 4.68 5.69 13 7.51 18.5 1.97 5.93 3.95 14.89 4.88 22 0.85 6.6 1.55 17.85 1.55 25 0 7.15-0.46 16.82-1.03 21.5-0.57 4.68-1.94 12.1-3.05 16.5-1.12 4.4-4.39 12.95-7.28 19-2.89 6.05-7.14 13.81-9.45 17.25-2.3 3.44-7.68 9.68-11.94 13.87-4.26 4.19-10.22 9.29-13.25 11.32-3.03 2.03-8.54 5.35-12.25 7.38-3.71 2.02-7.42 3.68-8.25 3.68-0.83 0-2.51 0.62-3.75 1.39-1.24 0.76-5.4 2-9.25 2.75-4.62 0.9-13.3 1.3-25.5 1.19-15.02-0.14-20.05-0.56-26.75-2.25-4.54-1.14-9.15-2.08-10.25-2.08-1.97 0-2 0.67-2 42 0 36.44-0.2 42.07-1.5 42.5-0.83 0.27-17.59 0.5-73 0.5l-0.8-45.75c-0.44-25.16-0.73-69.82-0.65-99.25 0.09-29.43 0.52-63.4 0.95-75.5 0.72-20.02 1.03-22.72 3.47-30 1.47-4.4 4.56-11.6 6.85-16 2.29-4.4 6.87-11.35 10.17-15.44 3.31-4.08 9.84-10.75 14.51-14.81 6.13-5.33 11.43-8.81 19-12.48 6.12-2.96 15.09-6.28 21.5-7.93 10.7-2.77 11.53-2.83 30.5-2.36zm-18.97 88.02c-2.41 1.65-5.66 5.03-7.22 7.5-1.56 2.48-3.62 6.75-4.58 9.5-1.3 3.75-1.73 8.26-1.73 18v13c6.08 11.51 8.75 14.96 11.2 16.7 2.09 1.49 5.83 3.61 8.3 4.72 2.47 1.1 7.2 2.29 10.5 2.64 3.96 0.41 8.46 0.08 13.25-0.97 4.15-0.91 9.07-2.81 11.5-4.45 2.34-1.57 5.58-4.61 7.21-6.75 1.63-2.14 3.85-6.14 4.93-8.89 1.59-4.03 1.97-7.42 1.97-17.5 0-10.68-0.33-13.3-2.26-18-1.24-3.02-3.35-6.96-4.68-8.75-1.33-1.79-3.88-4.36-5.67-5.71-1.79-1.36-5.72-3.33-8.75-4.38-3.03-1.05-7.75-2.16-10.5-2.46-3.08-0.34-7.7 0.09-12.05 1.12-3.91 0.93-8.99 3.01-11.42 4.68zm-448.53-86.06c12.1 0.21 24.47 0.91 27.5 1.55 3.02 0.65 6.4 1.84 7.5 2.64 1.93 1.41 2.01 2.76 2.5 78.37l-12.75 0.52c-7.01 0.29-15.9 0.82-19.75 1.2-6.55 0.63-7.31 0.97-11.84 5.23-2.67 2.5-5.94 6.8-7.28 9.55-1.89 3.9-2.63 7.64-3.36 17-0.51 6.6-1.29 36.19-2.52 119.5l-37.5-0.01c-20.63-0.01-38.09-0.35-38.81-0.76-1.06-0.59-1.34-15.28-1.45-77.23-0.12-69.95 0.02-77.18 1.65-84.5 0.97-4.4 3.54-12.27 5.7-17.5 2.15-5.22 5.38-11.96 7.16-14.97 1.79-3 7.97-10.22 13.75-16.04 7.84-7.91 12.27-11.5 17.5-14.21 3.85-1.99 9.47-4.59 12.5-5.78 3.02-1.19 8.2-2.79 11.5-3.55 4.45-1.03 11.67-1.29 28-1.01zm48.5 3.56h83v232h-83zm536 0h78v115.5c0 101.78-0.18 115.56-1.5 116-0.83 0.27-18.38 0.5-76.5 0.5z"/>
	</g>
</svg>