<svg version="1.2" xmlns="http://www.w3.org/2000/svg" viewBox="0 0 609 609" width="609" height="609">
	<style>
		.s0 { fill: #ff7670 } 
	</style>
	<path id="Path 0" fill-rule="evenodd" class="s0" d="m452 118.09c7.98-0.05 18.55 0.41 23.5 1.01 4.95 0.61 13.05 2.12 18 3.37 4.95 1.24 14.18 4.49 20.5 7.2 6.33 2.72 14.65 6.78 18.5 9.01 3.85 2.24 10.38 6.77 14.5 10.06 4.13 3.3 12.4 11.12 18.38 17.38 5.99 6.26 13.24 14.98 16.12 19.38 2.88 4.4 7.26 12.05 9.74 17 2.48 4.95 6.14 14.06 8.14 20.25 1.99 6.19 4.59 16.54 5.78 23 1.64 8.97 2.15 15.65 2.15 28.25 0 12.66-0.51 19.29-2.19 28.5-1.2 6.6-3.75 16.73-5.67 22.5-1.91 5.77-6.17 15.9-9.47 22.5-3.3 6.6-9.03 16.02-12.74 20.94-3.71 4.91-10.57 12.73-15.24 17.36-4.67 4.64-12.33 11.3-17 14.81-4.67 3.5-12.1 8.4-16.5 10.89-4.4 2.49-12.5 6.28-18 8.42-5.5 2.15-14.5 4.91-20 6.15-5.84 1.31-11.14 1.97-12.75 1.59-1.72-0.41-2.95-1.5-3.28-2.91-0.29-1.24-0.63-37.13-0.75-79.75-0.12-42.63 0.12-78.74 0.53-80.25 0.41-1.51 1.43-2.75 2.25-2.75 0.82 0 8.02 6.3 16 14q14.51 14.01 16.7 14c1.44 0 5.55-3.35 11.98-9.75 8.69-8.66 9.78-10.14 9.76-13.25-0.02-3.25-2.38-5.87-33.23-36.84-18.27-18.34-34.9-34.65-36.96-36.25-2.66-2.06-4.4-2.73-6-2.29-1.24 0.34-17.46 15.75-36.06 34.25-18.59 18.49-34.68 35.09-35.75 36.88-1.73 2.91-1.79 3.54-0.53 6 0.77 1.51 5.39 6.67 10.25 11.46 5.71 5.63 9.64 8.72 11.09 8.75 1.52 0.03 5.88-3.42 13.5-10.68 6.19-5.9 12.94-12.31 15-14.25 2.41-2.27 4.07-3.17 4.65-2.53 0.5 0.56 1.27 37.62 2.6 167.77l-3-0.6c-1.65-0.33-5.25-0.88-8-1.23-2.75-0.35-8.6-1.54-13-2.63-4.4-1.1-11.38-3.35-15.5-4.99-4.13-1.65-11.32-4.97-16-7.39-4.68-2.42-12.32-7.28-17-10.8-4.68-3.52-13-10.86-18.5-16.31-5.5-5.44-11.88-12.36-14.19-15.36-2.3-3-6.92-10.19-10.26-15.96-3.35-5.77-7.85-15-10.01-20.5-2.16-5.5-5.34-15.63-7.07-22.5-2.73-10.85-3.22-14.81-3.69-30-0.33-10.59-0.09-21.45 0.61-27.5 0.64-5.5 2.53-15.18 4.2-21.5 1.67-6.33 4.67-15.33 6.66-20 1.99-4.68 5.82-12.33 8.51-17 2.69-4.68 6.96-11.43 9.49-15 2.53-3.58 10.03-11.9 16.67-18.51 6.91-6.86 15.72-14.43 20.58-17.68 4.68-3.12 13.45-8.15 19.5-11.18 6.05-3.02 15.73-6.87 21.5-8.56 5.77-1.68 14.1-3.69 18.5-4.47 4.4-0.78 14.52-1.46 22.5-1.51zm-161 7.91l1.08 2.75c0.76 1.94 0.95 47.32 0.65 153.75-0.43 150.01-0.45 151.06-2.58 160.75-1.18 5.36-3.09 12.11-4.23 15-1.15 2.89-3.9 8.85-6.12 13.25-2.23 4.4-5.74 10.48-7.82 13.5-2.07 3.02-6.63 8.48-10.12 12.12-3.5 3.64-9.51 9.09-13.36 12.1-3.85 3.02-10.6 7.64-15 10.28-4.4 2.63-11.38 6.27-15.5 8.07-4.13 1.81-9.53 3.96-12 4.79-2.47 0.83-7.2 2.19-10.5 3.04-3.3 0.84-9.6 2.27-14 3.17-5.38 1.1-15.54 1.81-31 2.16-18.78 0.43-24.93 0.21-33.5-1.18-5.78-0.94-15-2.82-20.5-4.17-5.5-1.36-14.72-4.38-20.5-6.72-5.78-2.34-14.78-6.76-20-9.84-5.23-3.07-13.1-8.51-17.5-12.08-4.4-3.57-11.92-10.49-16.71-15.37-5.62-5.72-8.72-9.67-8.75-11.12-0.03-1.48 3.31-5.94 9.71-12.99 5.36-5.91 17.85-18.98 27.75-29.04 9.9-10.06 18.34-18.28 18.75-18.26 0.41 0.02 5.81 3.38 12 7.46 6.19 4.09 15.08 9.19 19.75 11.35 4.67 2.16 12.78 4.97 18 6.24 7.63 1.85 12.35 2.31 24 2.34 13.29 0.03 15.17-0.2 22.5-2.73 4.4-1.52 10.25-4.06 13-5.63 2.75-1.58 7.47-4.97 10.5-7.53 3.03-2.56 7.4-7.43 9.73-10.81 2.33-3.38 5.14-8.51 6.25-11.4 1.11-2.89 2.02-6.15 2.02-7.25 0-1.72-1.09-1.26-7.75 3.27-4.26 2.89-10.68 6.45-14.25 7.9-3.57 1.46-11.22 3.86-17 5.33-10.08 2.59-11.29 2.67-30.5 2.24-19.38-0.44-20.37-0.56-32-4.02-6.6-1.96-15.6-5.22-20-7.25-4.4-2.03-11.04-5.66-14.75-8.08-3.71-2.41-11.54-9-17.39-14.64-5.85-5.64-13.21-13.63-16.35-17.75-3.14-4.13-7.79-11.1-10.34-15.5-2.55-4.4-6.41-12.73-8.59-18.5-2.18-5.77-5.16-15.23-6.61-21-2.31-9.13-2.72-13.24-3.2-31.5-0.45-17.2-0.23-22.9 1.19-31.5 0.96-5.78 2.86-14.33 4.22-19 1.35-4.68 3.77-11.65 5.37-15.5 1.61-3.85 5.22-11.05 8.05-16 2.82-4.95 7.66-12.35 10.76-16.44 3.1-4.09 9.5-11.29 14.21-16 4.71-4.71 12.13-11.12 16.5-14.24 4.36-3.13 12.21-7.94 17.43-10.69 5.22-2.75 13.1-6.33 17.5-7.94 4.4-1.62 12.05-3.93 17-5.14 4.95-1.21 13.28-2.55 18.5-2.99 5.22-0.43 41.56-0.84 152-1.06zm-152.5 98.96c-2.2 0.71-6.68 2.92-9.96 4.91-3.28 2-7.72 5.88-9.87 8.63-2.14 2.75-4.81 6.8-5.91 9-1.11 2.2-2.86 7.37-3.9 11.5-1.03 4.12-1.88 10.76-1.87 14.75 0 3.99 0.71 10.51 1.56 14.5 0.86 3.99 2.83 9.95 4.39 13.25 1.96 4.14 4.81 7.79 9.2 11.78 3.5 3.18 8.61 6.83 11.36 8.1 2.75 1.28 7.25 2.81 10 3.41 2.75 0.6 7.25 1.34 10 1.66 2.78 0.32 8.77-0.09 13.5-0.93 4.68-0.82 11.2-2.79 14.5-4.37 3.3-1.58 8.03-4.66 10.5-6.84 2.47-2.19 5.94-6.19 7.71-8.89 1.76-2.71 4.14-7.62 5.29-10.92 1.23-3.53 2.34-9.91 2.69-15.5 0.36-5.81 0.12-12.22-0.64-16.5-0.67-3.85-2.44-9.7-3.93-13-1.49-3.3-4.26-7.95-6.16-10.34-1.9-2.39-5.93-6.01-8.96-8.05-3.03-2.04-8.43-4.68-12-5.85-3.57-1.18-9.87-2.35-14-2.61-4.12-0.26-10.2-0.14-13.5 0.27-3.3 0.41-7.8 1.33-10 2.04z"/>
</svg>